HIERARCHY
ROOT SpineBase
{
  OFFSET 0.000000 0.000000 0.000000
  CHANNELS 6 Xposition Yposition Zposition Zrotation Xrotation Yrotation
  JOINT SpineMid
  {
    OFFSET -0.000000 31.210369 0.000000
    CHANNELS 3 Zrotation Xrotation Yrotation
    JOINT SpineShoulder
    {
      OFFSET -0.141123 23.258617 -0.788413
      CHANNELS 3 Zrotation Xrotation Yrotation
      JOINT Neck
      {
        OFFSET -0.082908 7.732300 -0.612394
        CHANNELS 3 Zrotation Xrotation Yrotation
        JOINT Head
        {
          OFFSET -6.332256 13.114226 2.814233
          CHANNELS 3 Zrotation Xrotation Yrotation
          End Site
          {
            OFFSET 0 0 0
          }
        }
      }
      JOINT ShoulderLeft
      {
        OFFSET -12.860297 -6.215709 15.226486
        CHANNELS 3 Zrotation Xrotation Yrotation
        JOINT ElbowLeft
        {
          OFFSET -0.582756 -25.753273 -0.299929
          CHANNELS 3 Zrotation Xrotation Yrotation
          JOINT WristLeft
          {
            OFFSET -0.964335 -21.391788 -3.951217
            CHANNELS 3 Zrotation Xrotation Yrotation
            JOINT HandLeft
            {
              OFFSET 0.918555 -4.379696 -1.479389
              CHANNELS 3 Zrotation Xrotation Yrotation
              JOINT HandTipLeft
              {
                OFFSET 0.841212 -6.687108 -3.868682
                CHANNELS 3 Zrotation Xrotation Yrotation
                End Site
                {
                  OFFSET 0 0 0
                }
              }
              JOINT ThumbLeft
              {
                OFFSET -2.005658 0.121023 -1.004263
                CHANNELS 3 Zrotation Xrotation Yrotation
                End Site
                {
                  OFFSET 0 0 0
                }
              }
            }
          }
        }
      }
      JOINT ShoulderRight
      {
        OFFSET 10.858257 -2.567561 -11.861923
        CHANNELS 3 Zrotation Xrotation Yrotation
        JOINT ElbowRight
        {
          OFFSET 6.685593 -22.889413 -6.771071
          CHANNELS 3 Zrotation Xrotation Yrotation
          JOINT WristRight
          {
            OFFSET -2.636951 -22.173386 -2.648969
            CHANNELS 3 Zrotation Xrotation Yrotation
            JOINT HandRight
            {
              OFFSET -1.822515 -5.385421 0.246490
              CHANNELS 3 Zrotation Xrotation Yrotation
              JOINT HandTipRight
              {
                OFFSET -1.302103 -7.136215 -0.314848
                CHANNELS 3 Zrotation Xrotation Yrotation
                End Site
                {
                  OFFSET 0 0 0
                }
              }
              JOINT ThumbRight
              {
                OFFSET 2.781266 -0.366783 -1.987290
                CHANNELS 3 Zrotation Xrotation Yrotation
                End Site
                {
                  OFFSET 0 0 0
                }
              }
            }
          }
        }
      }
    }
  }
  JOINT HipLeft
  {
    OFFSET -5.347110 -0.024260 1.599058
    CHANNELS 3 Zrotation Xrotation Yrotation
    JOINT KneeLeft
    {
      OFFSET 1.430884 -29.341597 0.124288
      CHANNELS 3 Zrotation Xrotation Yrotation
      JOINT AnkleLeft
      {
        OFFSET 6.179833 -32.999954 3.770068
        CHANNELS 3 Zrotation Xrotation Yrotation
        JOINT FootLeft
        {
          OFFSET -6.382281 -1.977612 -8.899852
          CHANNELS 3 Zrotation Xrotation Yrotation
          End Site
          {
            OFFSET 0 0 0
          }
        }
      }
    }
  }
  JOINT HipRight
  {
    OFFSET 4.702486 2.454860 -8.447095
    CHANNELS 3 Zrotation Xrotation Yrotation
    JOINT KneeRight
    {
      OFFSET 8.591462 -24.053870 -7.680449
      CHANNELS 3 Zrotation Xrotation Yrotation
      JOINT AnkleRight
      {
        OFFSET 6.355242 -37.849945 9.590567
        CHANNELS 3 Zrotation Xrotation Yrotation
        JOINT FootRight
        {
          OFFSET -6.564808 -1.959536 -8.865944
          CHANNELS 3 Zrotation Xrotation Yrotation
          End Site
          {
            OFFSET 0 0 0
          }
        }
      }
    }
  }
}
MOTION
Frames: 11
Frame Time: 0.033333
29.574849 63.750972 317.343022 6.894093 -9.173178 31.077642 -0.224484 -0.377922 -30.325047 0.180480 -0.136998 0.268925 -5.201801 4.926512 -2.822607 0.000000 0.000000 0.000000 -16.541845 4.309326 1.560636 33.878394 61.613543 -20.981057 -60.118458 -60.341086 -38.305264 46.674294 38.709252 -21.544485 0.000000 0.000000 0.000000 0.000000 0.000000 0.000000 9.582295 21.249378 -5.395456 -89.222098 -25.406766 -15.750538 11.328354 -19.560019 -11.150899 -2.113656 -4.106314 -2.631327 0.000000 0.000000 0.000000 0.000000 0.000000 0.000000 -24.719737 29.594681 -21.771604 25.945487 -9.368205 0.279309 6.509452 -1.038664 -9.158880 0.000000 0.000000 0.000000 4.298427 22.872002 -27.233391 2.487054 -11.445382 -3.597563 1.496761 -3.697612 -10.592231 0.000000 0.000000 0.000000
29.023982 61.625724 318.954774 8.366670 -11.320298 26.539154 -0.301365 -0.350115 -25.460781 -0.075208 0.031351 0.311310 -6.644185 5.922345 -3.055299 0.000000 0.000000 0.000000 -18.042318 6.118300 2.126338 38.093268 62.293995 -24.069900 -74.372423 -64.265855 -52.705695 44.500144 41.642725 -20.988593 0.000000 0.000000 0.000000 0.000000 0.000000 0.000000 15.880123 21.502506 -9.901920 -95.207096 -25.661609 -14.137529 13.291149 -20.865812 -11.404066 -2.603359 2.027207 -0.633587 0.000000 0.000000 0.000000 0.000000 0.000000 0.000000 -35.832691 31.700543 -11.870227 30.448465 -9.506345 0.093780 10.517415 -2.882574 -11.656825 0.000000 0.000000 0.000000 5.011739 29.934440 -21.921540 1.354293 -16.375500 -5.025798 2.239247 -4.475537 -13.473782 0.000000 0.000000 0.000000
27.398280 59.610165 320.505901 9.587747 -12.960783 22.848389 -0.442459 -0.338483 -21.457716 -0.298268 0.156950 0.349551 -7.247098 6.649864 -3.406609 0.000000 0.000000 0.000000 -17.369008 8.004092 2.286177 38.360223 62.858447 -25.467222 -85.517544 -64.202875 -62.926942 48.596526 43.797913 -23.824083 0.000000 0.000000 0.000000 0.000000 0.000000 0.000000 22.336146 19.032412 -14.509858 -99.974392 -26.811775 -10.856161 11.718211 -17.788199 -10.716230 -0.420512 6.530037 0.428666 0.000000 0.000000 0.000000 0.000000 0.000000 0.000000 -44.186495 31.195155 -4.391080 32.184527 -9.052089 -0.345516 14.493512 -4.441688 -14.029403 0.000000 0.000000 0.000000 4.940001 35.231895 -17.810344 1.299407 -19.361376 -5.217471 1.622908 -5.859749 -16.374057 0.000000 0.000000 0.000000
25.032781 57.893857 321.935398 10.708570 -14.027616 20.201015 -0.392421 -0.402618 -18.544914 -0.344294 0.194295 0.395393 -7.310521 6.988884 -4.036714 0.000000 0.000000 0.000000 -15.515188 10.237005 1.987940 34.344659 62.574682 -24.303118 -90.900948 -64.745597 -68.775401 50.235686 45.526235 -25.450246 0.000000 0.000000 0.000000 0.000000 0.000000 0.000000 27.465211 15.767370 -18.270065 -105.099915 -27.744777 -7.814843 11.392123 -13.092705 -9.992326 2.477473 4.887618 -0.079786 0.000000 0.000000 0.000000 0.000000 0.000000 0.000000 -50.736897 29.842850 0.865022 34.215630 -8.493522 -0.541764 16.754895 -5.359016 -16.502381 0.000000 0.000000 0.000000 4.438246 38.639821 -15.014909 2.294537 -20.390014 -4.236319 -0.056764 -7.712132 -19.382602 0.000000 0.000000 0.000000
22.116981 56.613191 323.132391 11.816526 -14.400069 18.633899 -0.450323 -0.372655 -16.755602 -0.526446 0.251848 0.442897 -8.056453 6.232195 -4.513269 0.000000 0.000000 0.000000 -13.548023 11.638732 1.452087 20.079351 61.988674 -15.367617 -78.445451 -62.590576 -58.097343 34.990990 38.154832 -10.583028 0.000000 0.000000 0.000000 0.000000 0.000000 0.000000 30.928971 11.441818 -20.532922 -108.289462 -28.545576 -4.081464 11.383518 -8.170782 -9.198284 3.486651 2.967824 0.288674 0.000000 0.000000 0.000000 0.000000 0.000000 0.000000 -53.884669 28.675185 3.322441 34.803540 -8.123854 -0.578456 17.529426 -5.625443 -18.348132 0.000000 0.000000 0.000000 3.972095 40.016963 -13.713547 3.776820 -19.604574 -2.488804 -3.627481 -7.389544 -21.325982 0.000000 0.000000 0.000000
19.311812 56.305202 323.882469 13.522940 -13.567441 18.033362 -0.200098 -0.383066 -15.995633 -0.511290 0.268065 0.524280 -9.322548 2.252659 -6.193892 0.000000 0.000000 0.000000 -17.564219 12.221497 1.897548 26.412446 62.399510 -18.573279 -83.667980 -63.440609 -62.731272 36.607151 36.719927 -12.832090 0.000000 0.000000 0.000000 0.000000 0.000000 0.000000 29.382715 6.888221 -20.165418 -108.917481 -29.230368 -0.214250 13.704735 -1.060164 -8.455617 3.951190 -4.140042 -0.137755 0.000000 0.000000 0.000000 0.000000 0.000000 0.000000 -54.679566 27.765819 3.228406 33.312955 -8.305463 -0.760470 17.601795 -4.677643 -19.358142 0.000000 0.000000 0.000000 0.805631 38.997506 -12.338240 7.666146 -17.420118 0.019846 -6.458961 -10.093019 -23.528959 0.000000 0.000000 0.000000
15.986285 55.588425 324.817698 15.113691 -12.938051 16.605183 0.029164 -0.229124 -14.435540 -0.572908 0.305371 0.598498 -10.402062 1.020729 -6.573623 0.000000 0.000000 0.000000 -22.771744 12.273620 2.620258 46.915363 62.932492 -31.503559 -97.702093 -65.185013 -73.520334 57.740852 36.354060 -33.319437 0.000000 0.000000 0.000000 0.000000 0.000000 0.000000 29.320611 4.436330 -20.314592 -111.196211 -30.493824 0.452230 14.922938 5.177734 -7.774432 4.825078 -12.162962 -1.026489 0.000000 0.000000 0.000000 0.000000 0.000000 0.000000 -56.567961 25.923275 4.006720 35.418291 -7.538233 -0.177472 15.003898 -5.144213 -16.884896 0.000000 0.000000 0.000000 0.074092 36.306871 -12.360315 8.381521 -13.402870 2.380523 -8.037455 -14.881215 -26.060678 0.000000 0.000000 0.000000
13.019211 54.804512 325.132167 16.991812 -11.821387 15.774273 0.119640 -0.342269 -13.475088 -0.655147 0.461422 0.666397 -14.794674 2.040774 -4.817715 0.000000 0.000000 0.000000 -29.253486 12.307716 3.435731 76.472677 59.213019 -49.168325 -126.979695 -72.615116 -99.981740 77.672111 47.341004 -61.979954 0.000000 0.000000 0.000000 0.000000 0.000000 0.000000 26.360517 3.070885 -19.225295 -111.048774 -31.003535 0.869907 14.855226 8.981018 -7.280331 5.225528 -15.357393 -1.239747 0.000000 0.000000 0.000000 0.000000 0.000000 0.000000 -59.056067 22.946312 3.598468 37.950455 -5.284912 0.030181 13.546979 -6.357119 -21.146620 0.000000 0.000000 0.000000 0.463097 31.635551 -14.092576 6.566600 -7.831689 4.250550 -8.210753 -21.006834 -27.761311 0.000000 0.000000 0.000000
10.617849 54.209023 325.685200 18.247271 -11.202386 14.591352 -0.194255 0.130309 -12.239605 -0.516279 0.352078 0.712883 -17.500481 4.472428 -2.733040 0.000000 0.000000 0.000000 -37.238366 12.383935 4.747888 102.807977 49.041439 -57.935966 120.045369 -65.122951 142.551467 77.411778 67.566845 -99.498100 0.000000 0.000000 0.000000 0.000000 0.000000 0.000000 23.291552 1.865036 -17.958891 -110.840240 -30.476281 1.921524 13.603929 10.392275 -7.006981 3.234852 -20.151125 -2.653812 0.000000 0.000000 0.000000 0.000000 0.000000 0.000000 -58.135928 20.220346 2.656610 37.686780 -2.876237 0.123549 10.008248 -3.042601 -25.366881 0.000000 0.000000 0.000000 3.352961 25.949491 -16.722598 1.618774 -0.723228 6.210826 -7.342906 -28.929122 -28.634951 0.000000 0.000000 0.000000
8.151011 53.348462 327.171377 18.335658 -11.900232 12.648843 -0.367210 0.742364 -10.241362 -0.360684 0.178452 0.723914 -18.679692 9.189908 -0.017209 0.000000 0.000000 0.000000 -44.377053 13.277402 6.658781 120.777175 37.366800 -56.866067 95.389393 -36.180117 112.038788 102.627408 86.178531 -161.304402 0.000000 0.000000 0.000000 0.000000 0.000000 0.000000 25.288231 1.113035 -18.821131 -114.791892 -30.546391 1.892998 13.707166 11.314630 -7.038768 1.468785 -22.033020 -3.326721 0.000000 0.000000 0.000000 0.000000 0.000000 0.000000 -54.095675 19.001940 2.926936 34.241644 -1.640425 0.354946 5.888901 6.396510 -31.073445 0.000000 0.000000 0.000000 10.269715 24.061351 -19.325305 -4.956148 2.546794 8.116966 -8.609221 -32.825834 -28.791160 0.000000 0.000000 0.000000
6.742334 52.185820 328.338799 17.633880 -12.352623 9.249354 -0.816031 0.763090 -6.831812 -0.010086 -0.056618 0.695452 -18.668828 13.780631 2.367687 0.000000 0.000000 0.000000 -52.131197 12.727952 8.843648 135.305656 27.260505 -52.477387 85.837577 -31.901087 105.519102 174.888394 87.032313 115.358174 0.000000 0.000000 0.000000 0.000000 0.000000 0.000000 31.693696 1.439722 -21.325407 -121.846993 -30.801884 -0.666976 14.478227 10.548212 -7.402919 -0.095779 -21.060146 -3.078870 0.000000 0.000000 0.000000 0.000000 0.000000 0.000000 -51.744513 14.810865 3.888357 32.076179 2.227815 0.273718 2.810271 17.069404 -35.321110 0.000000 0.000000 0.000000 19.158043 22.982756 -21.196947 -14.403693 3.534690 9.325448 -7.835459 -36.882327 -29.022345 0.000000 0.000000 0.000000
